<svg data-v-423bf9ae="" xmlns="http://www.w3.org/2000/svg" viewBox="0 0 511.942879813058 60" class="font"><!----><!----><!----><g data-v-423bf9ae="" id="9f9d9514-4183-46b0-a26d-a3bc9f1844d4" fill="white" transform="matrix(5.714285714285714,0,0,5.714285714285714,-6.857140575136441,-14.000000987734111)"><path d="M7.20 9.10L9.32 9.10C9.06 9.59 8.71 9.96 8.27 10.21C7.84 10.45 7.25 10.57 6.52 10.57C5.81 10.57 5.22 10.37 4.75 9.96C4.27 9.55 4.03 8.99 4.03 8.27C4.03 7.24 4.39 6.43 5.10 5.84C5.82 5.26 6.63 4.97 7.53 4.97C8.17 4.97 8.66 5.04 9.02 5.19C9.38 5.34 9.64 5.60 9.80 5.96L12.18 4.70C11.85 3.92 11.32 3.36 10.57 3.02C9.82 2.69 8.86 2.52 7.69 2.52C6.58 2.52 5.53 2.77 4.54 3.26C3.55 3.76 2.74 4.46 2.13 5.38C1.51 6.29 1.20 7.31 1.20 8.43C1.20 9.73 1.70 10.79 2.68 11.63C3.67 12.46 4.90 12.88 6.37 12.88C7.98 12.88 9.32 12.40 10.37 11.45C11.43 10.49 12.10 9.19 12.39 7.56L12.50 7.00L7.57 7.00ZM18.69 6.16L18.47 7.39C18.17 6.48 17.47 6.02 16.38 6.02C16.00 6.02 15.60 6.11 15.19 6.29C14.78 6.46 14.40 6.71 14.05 7.03C13.70 7.36 13.41 7.77 13.18 8.29C12.95 8.80 12.84 9.36 12.84 9.95C12.84 11.81 13.70 12.74 15.41 12.74C16.24 12.74 17.02 12.32 17.74 11.47L17.53 12.60L20.26 12.60L21.42 6.16ZM15.78 9.62C15.78 9.21 15.92 8.88 16.19 8.63C16.47 8.38 16.79 8.26 17.15 8.26C17.42 8.26 17.65 8.33 17.84 8.48C18.03 8.63 18.13 8.85 18.13 9.14C18.13 9.57 17.99 9.90 17.70 10.14C17.41 10.38 17.09 10.50 16.74 10.50C16.45 10.50 16.22 10.42 16.04 10.26C15.87 10.10 15.78 9.89 15.78 9.62ZM24.96 8.53C25.08 8.01 25.31 7.76 25.65 7.76C25.84 7.76 25.97 7.84 26.01 8.00C26.06 8.16 26.05 8.39 25.98 8.68L25.30 12.60L28.03 12.60L28.77 8.44C28.89 7.98 29.11 7.76 29.43 7.76C29.62 7.76 29.75 7.84 29.79 8.00C29.84 8.16 29.83 8.39 29.76 8.68L29.08 12.60L31.81 12.60L32.58 8.26C32.71 7.49 32.67 6.92 32.46 6.55C32.25 6.19 31.74 6.01 30.93 6.01C30.18 6.01 29.49 6.33 28.87 6.99C28.74 6.33 28.16 6.01 27.15 6.01C26.37 6.01 25.73 6.38 25.21 7.14L25.38 6.16L22.79 6.16L21.66 12.60L24.25 12.60ZM38.39 8.41L36.47 8.41C36.68 7.75 37.08 7.42 37.66 7.42C37.91 7.42 38.10 7.49 38.21 7.62C38.33 7.76 38.39 7.98 38.39 8.27ZM36.18 9.94L41.01 9.94C41.15 9.40 41.22 8.93 41.22 8.53C41.22 6.81 40.08 5.95 37.81 5.95C36.63 5.95 35.60 6.33 34.73 7.08C33.87 7.83 33.43 8.74 33.43 9.81C33.43 11.76 34.64 12.74 37.04 12.74C37.89 12.74 38.67 12.56 39.36 12.20C40.06 11.84 40.59 11.34 40.95 10.68L38.54 10.29C38.33 10.80 37.84 11.06 37.09 11.06C36.79 11.06 36.56 10.99 36.41 10.84C36.25 10.70 36.18 10.44 36.18 10.07ZM56.48 9.25L56.50 12.60L59.37 12.60L59.42 2.45L53.10 8.86L49.34 2.45L45.65 12.60L48.66 12.60L50.12 8.78L52.67 12.95ZM66.56 6.16L66.33 7.39C66.03 6.48 65.34 6.02 64.25 6.02C63.86 6.02 63.47 6.11 63.06 6.29C62.65 6.46 62.27 6.71 61.91 7.03C61.56 7.36 61.28 7.77 61.05 8.29C60.82 8.80 60.70 9.36 60.70 9.95C60.70 11.81 61.56 12.74 63.28 12.74C64.11 12.74 64.89 12.32 65.60 11.47L65.39 12.60L68.12 12.60L69.29 6.16ZM63.64 9.62C63.64 9.21 63.78 8.88 64.06 8.63C64.33 8.38 64.65 8.26 65.02 8.26C65.29 8.26 65.52 8.33 65.71 8.48C65.90 8.63 66.00 8.85 66.00 9.14C66.00 9.57 65.85 9.90 65.56 10.14C65.27 10.38 64.96 10.50 64.61 10.50C64.32 10.50 64.09 10.42 63.91 10.26C63.73 10.10 63.64 9.89 63.64 9.62ZM72.97 8.55C73.11 8.02 73.42 7.76 73.91 7.76C74.17 7.76 74.33 7.83 74.40 7.98C74.46 8.13 74.47 8.36 74.41 8.68L73.72 12.60L76.59 12.60L77.36 8.26C77.49 7.52 77.41 6.96 77.10 6.58C76.79 6.20 76.19 6.01 75.29 6.01C74.42 6.01 73.73 6.39 73.21 7.15L73.39 6.16L70.66 6.16L69.52 12.60L72.25 12.60ZM79.32 3.89C79.32 4.27 79.47 4.60 79.77 4.86C80.06 5.13 80.42 5.26 80.84 5.26C81.26 5.26 81.61 5.13 81.91 4.86C82.20 4.60 82.35 4.27 82.35 3.89C82.35 3.51 82.20 3.18 81.91 2.92C81.61 2.65 81.26 2.52 80.84 2.52C80.42 2.52 80.06 2.65 79.77 2.92C79.47 3.18 79.32 3.51 79.32 3.89ZM79.11 6.16L77.98 12.60L80.60 12.60L81.73 6.16ZM88.06 6.16L87.84 7.39C87.54 6.48 86.84 6.02 85.75 6.02C85.37 6.02 84.97 6.11 84.56 6.29C84.15 6.46 83.77 6.71 83.42 7.03C83.07 7.36 82.78 7.77 82.55 8.29C82.32 8.80 82.21 9.36 82.21 9.95C82.21 11.81 83.07 12.74 84.78 12.74C85.61 12.74 86.39 12.32 87.11 11.47L86.90 12.60L89.63 12.60L90.79 6.16ZM85.15 9.62C85.15 9.21 85.29 8.88 85.56 8.63C85.84 8.38 86.16 8.26 86.52 8.26C86.79 8.26 87.02 8.33 87.21 8.48C87.40 8.63 87.50 8.85 87.50 9.14C87.50 9.57 87.36 9.90 87.07 10.14C86.78 10.38 86.46 10.50 86.11 10.50C85.82 10.50 85.59 10.42 85.41 10.26C85.24 10.10 85.15 9.89 85.15 9.62Z"></path></g><!----><!----></svg>